<?xml version="1.0" standalone="no"?>
<!DOCTYPE svg PUBLIC "-//W3C//DTD SVG 20010904//EN"
 "http://www.w3.org/TR/2001/REC-SVG-20010904/DTD/svg10.dtd">
<svg version="1.0" xmlns="http://www.w3.org/2000/svg"
 width="512.000000pt" height="512.000000pt" viewBox="0 0 512.000000 512.000000"
 preserveAspectRatio="xMidYMid meet">
<metadata>
Created by potrace 1.11, written by Peter Selinger 2001-2013
</metadata>
<g transform="translate(0.000000,512.000000) scale(0.100000,-0.100000)"
fill="#000000" stroke="none">
<path d="M2717 4206 c-170 -49 -297 -181 -351 -365 -9 -30 -48 -235 -86 -455
-39 -221 -107 -606 -151 -856 -44 -250 -106 -606 -139 -790 -70 -398 -76 -445
-60 -530 33 -183 159 -294 351 -307 236 -17 441 138 513 388 12 41 126 667
161 889 13 77 -40 70 509 70 l492 0 -47 -267 c-106 -599 -111 -634 -106 -718
10 -154 78 -265 202 -326 51 -25 81 -32 147 -36 229 -15 426 120 504 346 22
64 91 438 345 1882 91 522 99 576 99 696 0 125 -1 132 -31 191 -59 120 -172
190 -319 199 -144 10 -253 -30 -357 -129 -70 -68 -122 -151 -147 -238 -9 -30
-46 -219 -81 -420 -36 -201 -67 -375 -70 -387 l-5 -23 -490 0 c-445 0 -490 1
-490 16 0 9 27 170 61 358 88 496 84 578 -43 712 -71 76 -146 106 -268 110
-60 2 -113 -2 -143 -10z"/>
</g>
</svg>
